<svg xmlns="http://www.w3.org/2000/svg" version="1.1" xmlns:xlink="http://www.w3.org/1999/xlink" xmlns:svgjs="http://svgjs.dev/svgjs" width="100%" height="100%" viewBox="0 0 1000 600"><rect width="1000" height="600" x="0" y="0" fill="#ee4e34"/><g><circle r="166.66666666666666" cx="284.41079203287757" cy="306.6330013776136" fill="#fcedda" transform="matrix(1.0616240446096359,0,0,1.0616240446096359,0,-25.528989376784224)"/><path d="M243.28221304120424 381.6330051260246L243.28221304120424 381.6330051260246Q239.50185988276687 381.6330051260246 236.90804092734268 378.95640471457625Q234.34181579059322 376.279804303128 234.34181579059322 372.4994511446906L234.34181579059322 372.4994511446906L234.34181579059322 241.5667815331188Q234.34181579059322 237.78642837468144 236.90804092734268 235.22020323793197Q239.50185988276687 232.62638428250781 243.28221304120424 232.62638428250781L243.28221304120424 232.62638428250781Q247.2557229303647 232.62638428250781 249.82194806711416 235.22020323793197Q252.41576702253832 237.78642837468144 252.41576702253832 241.5667815331188L252.41576702253832 241.5667815331188L252.41576702253832 246.72682562529243Q259.3694093285691 239.58002658853857 267.70274256833613 235.60651669937815Q276.06366962677794 231.6330068102177 286.38375781112524 231.6330068102177L286.38375781112524 231.6330068102177Q298.4974442093296 231.6330068102177 309.4245964045209 237.78642837468144Q320.3517485997121 243.9398499391452 327.4157661804418 255.66722287590346Q334.47978376117146 267.3945958126617 334.47978376117146 284.28201284159366L334.47978376117146 284.28201284159366Q334.47978376117146 301.1694298705255 327.4157661804418 312.89680280728385Q320.3517485997121 324.6241757440421 309.4245964045209 330.77759730850585Q298.4974442093296 336.9310188729696 286.38375781112524 336.9310188729696L286.38375781112524 336.9310188729696Q276.06366962677794 336.9310188729696 267.70274256833613 332.95750898380913Q259.3694093285691 328.98399909464877 252.41576702253832 321.83720005789485L252.41576702253832 321.83720005789485L252.41576702253832 372.4994511446906Q252.41576702253832 376.279804303128 249.82194806711416 378.95640471457625Q247.2557229303647 381.6330051260246 243.28221304120424 381.6330051260246ZM283.8175326743758 320.04360184403765L283.8175326743758 320.04360184403765Q297.9179740171604 320.04360184403765 307.1619032731934 310.91004786270355Q316.3782387105517 301.77649388136956 316.3782387105517 284.28201284159366L316.3782387105517 284.28201284159366Q316.3782387105517 266.59437507109465 307.1619032731934 257.5711963644595Q297.9179740171604 248.5204238391496 283.8175326743758 248.5204238391496L283.8175326743758 248.5204238391496Q274.07691468219775 248.5204238391496 266.1298949038768 252.79746573373203Q258.18287512555594 257.07450762831445 252.41576702253832 263.4210859235013L252.41576702253832 263.4210859235013L252.41576702253832 305.142939759686Q258.18287512555594 311.48951805487286 266.1298949038768 315.7665599494553Q274.07691468219775 320.04360184403765 283.8175326743758 320.04360184403765Z " fill="#ee4e34" transform="matrix(1.0616240446096359,0,0,1.0616240446096359,0,-25.528989376784224)"/><path d="M541.3695602477301 381.63300690293534L541.3695602477301 381.63300690293534Q538.4271202308981 381.63300690293534 536.4082197813931 379.54967346036096Q534.4107969962445 377.4663400177865 534.4107969962445 374.52390000095465L534.4107969962445 374.52390000095465L534.4107969962445 272.6123826296614Q534.4107969962445 269.66994261282946 536.4082197813931 267.67251982768084Q538.4271202308981 265.6536193781758 541.3695602477301 265.6536193781758L541.3695602477301 265.6536193781758Q544.4623439150569 265.6536193781758 546.4597667002056 267.67251982768084Q548.4786671497106 269.66994261282946 548.4786671497106 272.6123826296614L548.4786671497106 272.6123826296614L548.4786671497106 276.62870586431507Q553.8910385675327 271.0659907959979 560.3772932031767 267.973207128671Q566.8850255031771 264.8804234613441 574.9176719724845 264.8804234613441L574.9176719724845 264.8804234613441Q584.3463666249604 264.8804234613441 592.8515217101094 269.66994261282946Q601.3566767952584 274.45946176431494 606.8549588705063 283.5874691158007Q612.3532409457541 292.7154764672863 612.3532409457541 305.8598070534258L612.3532409457541 305.8598070534258Q612.3532409457541 319.0041376395652 606.8549588705063 328.13214499105084Q601.3566767952584 337.26015234253657 592.8515217101094 342.04967149402205Q584.3463666249604 346.8391906455074 574.9176719724845 346.8391906455074L574.9176719724845 346.8391906455074Q566.8850255031771 346.8391906455074 560.3772932031767 343.7464069781805Q553.8910385675327 340.6536233108536 548.4786671497106 335.09090824253644L548.4786671497106 335.09090824253644L548.4786671497106 374.52390000095465Q548.4786671497106 377.4663400177865 546.4597667002056 379.54967346036096Q544.4623439150569 381.63300690293534 541.3695602477301 381.63300690293534ZM572.9202491873359 333.694860059368L572.9202491873359 333.694860059368Q583.8953356734752 333.694860059368 591.0903532328815 326.58575315738744Q598.2638931279315 319.47664625540676 598.2638931279315 305.8598070534258L598.2638931279315 305.8598070534258Q598.2638931279315 292.0926242009497 591.0903532328815 285.06942795639475Q583.8953356734752 278.0247540474835 572.9202491873359 278.0247540474835L572.9202491873359 278.0247540474835Q565.3386336695137 278.0247540474835 559.1530663348599 281.3537920227312Q552.967499000206 284.68282999797896 548.4786671497106 289.6226927999594L548.4786671497106 289.6226927999594L548.4786671497106 322.0969213068921Q552.967499000206 327.03678410887255 559.1530663348599 330.3658220841203Q565.3386336695137 333.694860059368 572.9202491873359 333.694860059368ZM638.9425894190231 346.0659947286757L638.9425894190231 346.0659947286757Q636.0001494021911 346.0659947286757 634.0027266170425 344.04709427917066Q631.9838261675375 342.04967149402205 631.9838261675375 339.1072314771901L631.9838261675375 339.1072314771901L631.9838261675375 238.7421059395603Q631.9838261675375 235.64932227223338 634.0027266170425 233.65189948708476Q636.0001494021911 231.63299903757968 638.9425894190231 231.63299903757968L638.9425894190231 231.63299903757968Q642.03537308635 231.63299903757968 644.054273535855 233.65189948708476Q646.0516963210036 235.64932227223338 646.0516963210036 238.7421059395603L646.0516963210036 238.7421059395603L646.0516963210036 339.1072314771901Q646.0516963210036 342.04967149402205 644.054273535855 344.04709427917066Q642.03537308635 346.0659947286757 638.9425894190231 346.0659947286757ZM690.5963721962538 346.8391906455074L690.5963721962538 346.8391906455074Q683.9382962457585 346.8391906455074 678.1393268695205 344.04709427917066Q672.3403574932825 341.27647557719024 668.8609758675398 336.10035846728897Q665.381594241797 330.90276369303126 665.381594241797 323.6433131405555L665.381594241797 323.6433131405555Q665.381594241797 312.66822665441623 674.1230036348667 305.623552745505Q682.8644130279366 298.60035650095006 700.9486064160565 298.60035650095006L700.9486064160565 298.60035650095006L719.655652070513 298.60035650095006L719.655652070513 297.3546519682767Q719.655652070513 287.00241774847416 714.5654456180375 282.57801889104815Q709.4537615012056 278.1750976979786 698.9511836309078 278.1750976979786L698.9511836309078 278.1750976979786Q692.4434513309075 278.1750976979786 687.5680215219962 279.3348915732262Q682.7140693774415 280.4946854484738 678.3755811774413 281.8907336316421L678.3755811774413 281.8907336316421Q677.1298766447679 282.19142093263224 676.3566807279362 282.19142093263224L676.3566807279362 282.19142093263224Q674.037092977441 282.19142093263224 672.3403574932825 280.4946854484738Q670.643622009124 278.7979499643152 670.643622009124 276.3280185633249L670.643622009124 276.3280185633249Q670.643622009124 272.13987401381974 674.6599452437777 270.44313852966127L674.6599452437777 270.44313852966127Q680.0723166615998 268.12355077916607 686.6444819546695 266.51272595243324Q693.2166472477392 264.8804234613441 701.4211150318981 264.8804234613441L701.4211150318981 264.8804234613441Q712.6968888190275 264.8804234613441 719.8274733853646 269.3692553118394Q726.9365802873452 273.85808716233475 730.3300512556622 280.81685041382025Q733.7449998883357 287.77561366530585 733.7449998883357 295.33575151877164L733.7449998883357 295.33575151877164L733.7449998883357 339.1072314771901Q733.7449998883357 342.04967149402205 731.6401887814048 344.04709427917066Q729.5568553388305 346.0659947286757 726.6144153219986 346.0659947286757L726.6144153219986 346.0659947286757Q723.6934529695233 346.0659947286757 721.6745525200182 344.04709427917066Q719.655652070513 342.04967149402205 719.655652070513 339.1072314771901L719.655652070513 339.1072314771901L719.655652070513 335.09090824253644Q715.4889851853643 339.40791877818026 708.5302219338788 343.1235547118439Q701.5714586823932 346.8391906455074 690.5963721962538 346.8391906455074ZM695.858399963581 334.4680559761997L695.858399963581 334.4680559761997Q703.1178505160566 334.4680559761997 709.4537615012056 330.90276369303126Q715.7896724863544 327.35894907421914 719.655652070513 322.8701172237238L719.655652070513 322.8701172237238L719.655652070513 309.8761302880795L702.8171632150664 309.8761302880795Q691.9924203794222 309.8761302880795 685.7209423873427 312.66822665441623Q679.4494643952631 315.43884535639666 679.4494643952631 322.0969213068921L679.4494643952631 322.0969213068921Q679.4494643952631 327.03678410887255 682.9288460210059 330.7524200425362Q686.4082276467487 334.4680559761997 695.858399963581 334.4680559761997ZM775.0250707814075 381.63300690293534L775.0250707814075 381.63300690293534Q772.2329744150708 381.63300690293534 770.2999846229914 379.61410645343017Q768.3669948309121 377.61668366828155 768.3669948309121 374.8245873019448L768.3669948309121 374.8245873019448Q768.3669948309121 373.42853911877637 768.8395034467536 372.3546559009545L768.8395034467536 372.3546559009545L778.8910503655662 346.53850334451727L749.8102928269506 275.7051662969883Q749.6599491764555 275.0823140306517 749.4236948685347 274.30911811381986Q749.2089182249703 273.53592219698817 749.2089182249703 272.76272628015647L749.2089182249703 272.76272628015647Q749.2089182249703 269.82028626332453 751.206341010119 267.73695282075016Q753.225241459624 265.6536193781758 756.1676814764559 265.6536193781758L756.1676814764559 265.6536193781758Q758.3154479120996 265.6536193781758 760.0980940536839 266.89932391084915Q761.8807401952681 268.12355077916607 762.6539361120998 269.99210757817605L762.6539361120998 269.99210757817605L786.4726658833885 329.0556845583776L810.7424266061622 270.2927948791662Q811.665966173489 268.12355077916607 813.2982686645781 266.89932391084915Q814.9305711556674 265.6536193781758 817.2501589061625 265.6536193781758L817.2501589061625 265.6536193781758Q820.171121258638 265.6536193781758 822.190021708143 267.73695282075016Q824.2089221576481 269.82028626332453 824.2089221576481 272.76272628015647L824.2089221576481 272.76272628015647Q824.2089221576481 274.1587744633248 823.7364135418064 275.40447899599815L823.7364135418064 275.40447899599815L781.5113254170515 376.84348775144986Q780.5877858497247 378.84091053659847 779.0413940160612 380.2369587197669Q777.4950021823978 381.63300690293534 775.0250707814075 381.63300690293534Z " fill="#fcedda" transform="matrix(1.0616240446096359,0,0,1.0616240446096359,0,-25.528989376784224)"/></g></svg>